<svg width="1000" height="1000" viewBox="0 0 1000 1000" fill="none" xmlns="http://www.w3.org/2000/svg">
<g clip-path="url(#clip0_2649_420)">
<g clip-path="url(#clip1_2649_420)">
<mask id="mask0_2649_420" style="mask-type:alpha" maskUnits="userSpaceOnUse" x="0" y="481" width="834" height="520">
<path d="M0.72352 481.425C-2.91549 579.463 22.3229 676.409 73.3047 760.227C124.286 844.045 198.766 911.041 287.494 952.896C376.222 994.752 475.29 1009.62 572.397 995.662C669.503 981.701 760.37 939.524 833.713 874.368L731.048 758.802C680.346 803.845 617.529 833.002 550.399 842.653C483.269 852.304 414.783 842.024 353.445 813.089C292.106 784.154 240.619 737.84 205.375 679.896C170.131 621.953 152.683 554.933 155.199 487.159L0.72352 481.425Z" fill="#F5F5FF"/>
</mask>
<g mask="url(#mask0_2649_420)">
<g filter="url(#filter0_f_2649_420)">
<ellipse cx="319.104" cy="876.57" rx="334.506" ry="314.476" fill="#834DFB"/>
</g>
</g>
<path d="M82.6388 678.928L95.7571 674.573L92.9762 669.02L104.646 664.987L107.467 670.62L118.372 667.071L115.511 661.358L127.22 657.405L130.082 663.119L143.884 658.521L150.293 671.316L136.49 675.914L140.279 683.478L154.081 678.88L160.489 691.675L146.687 696.273L149.549 701.986L137.839 705.939L134.977 700.225L124.072 703.775L127.014 709.649L115.304 713.601L112.362 707.727L99.2438 712.083L92.8356 699.288L105.954 694.932L102.165 687.368L89.0471 691.723L82.6388 678.928ZM113.875 683.415L117.704 691.06L128.569 687.43L124.74 679.786L113.875 683.415ZM112.369 736.275L164.663 699.553L173.663 712.369L152.966 726.902L165.379 744.579L186.076 730.045L195.076 742.861L142.781 779.584L133.782 766.768L154.847 751.975L142.434 734.299L121.369 749.091L112.369 736.275ZM153.983 793.971L200.314 749.963L231.925 783.242L222.659 792.044L201.833 770.118L192.632 778.858L212.714 800L203.448 808.802L183.366 787.66L174.034 796.523L195.357 818.971L186.091 827.772L153.983 793.971ZM194.393 836.301L231.419 824.559L233.857 786.043L248.116 797.175L245.997 821.096L268.335 812.959L282.665 824.147L246.073 835.771L243.555 874.681L229.296 863.549L231.566 839.289L208.723 847.488L194.393 836.301ZM251.36 880.452L302.455 835.693L318.363 844.494L307.588 911.561L293.491 903.762L295.707 891.205L274.917 879.703L265.377 888.207L251.36 880.452ZM284.631 870.883L298.019 878.29L302.296 854.942L284.631 870.883ZM318.768 916.623L340.316 856.466L355.821 862.02L364.345 907.615L377.851 869.911L392.594 875.191L371.046 935.349L355.456 929.764L346.44 885.81L333.511 921.904L318.768 916.623ZM384.266 939.806L418.488 881.13L436.368 884.42L447.465 951.434L431.621 948.519L429.731 935.909L406.364 931.61L400.021 942.705L384.266 939.806ZM412.771 920.16L427.819 922.929L424.455 899.432L412.771 920.16ZM485.455 954.828C479.937 954.686 475.164 953.573 471.136 951.489C467.17 949.347 464.125 946.388 462.001 942.612C459.877 938.836 458.88 934.429 459.009 929.391L460.051 888.814L475.706 889.216L474.664 929.793C474.566 933.631 475.479 936.626 477.404 938.776C479.331 940.866 482.124 941.958 485.783 942.052C489.442 942.146 492.287 941.199 494.319 939.21C496.352 937.162 497.418 934.218 497.517 930.379L498.558 889.803L514.213 890.205L513.171 930.781C513.042 935.82 511.82 940.17 509.505 943.832C507.251 947.495 504.058 950.294 499.927 952.228C495.797 954.103 490.973 954.97 485.455 954.828ZM544.146 952.174L538.427 901.375L519.645 903.489L518.216 890.79L571.43 884.799L572.859 897.499L554.078 899.613L559.797 950.412L544.146 952.174Z" fill="white"/>
</g>
<path d="M82.2599 678.928L95.3782 674.573L92.5973 669.02L104.267 664.987L107.088 670.62L117.993 667.071L115.132 661.358L126.842 657.405L129.703 663.119L143.505 658.521L149.914 671.316L136.111 675.914L139.9 683.478L153.702 678.88L160.111 691.675L146.308 696.273L149.17 701.986L137.46 705.939L134.598 700.225L123.693 703.775L126.635 709.649L114.925 713.601L111.983 707.727L98.8649 712.083L92.4567 699.288L105.575 694.932L101.786 687.368L88.6682 691.723L82.2599 678.928ZM113.496 683.415L117.325 691.06L128.19 687.43L124.361 679.786L113.496 683.415ZM111.99 736.275L164.284 699.553L173.284 712.369L152.587 726.902L165 744.579L185.697 730.045L194.697 742.861L142.403 779.584L133.403 766.768L154.468 751.975L142.055 734.299L120.99 749.091L111.99 736.275ZM153.604 793.971L199.935 749.963L231.546 783.242L222.28 792.044L201.454 770.118L192.253 778.858L212.335 800L203.069 808.802L182.987 787.66L173.656 796.523L194.978 818.971L185.712 827.772L153.604 793.971ZM194.014 836.301L231.04 824.559L233.478 786.043L247.738 797.175L245.618 821.096L267.956 812.959L282.286 824.147L245.694 835.771L243.176 874.681L228.917 863.549L231.187 839.289L208.344 847.488L194.014 836.301ZM250.981 880.452L302.076 835.693L317.984 844.494L307.209 911.561L293.112 903.762L295.328 891.205L274.538 879.703L264.998 888.207L250.981 880.452ZM284.252 870.883L297.64 878.29L301.917 854.942L284.252 870.883ZM318.389 916.623L339.937 856.466L355.442 862.02L363.966 907.615L377.472 869.911L392.215 875.191L370.667 935.349L355.077 929.764L346.061 885.81L333.132 921.904L318.389 916.623ZM383.887 939.806L418.109 881.13L435.989 884.42L447.086 951.434L431.242 948.519L429.353 935.909L405.985 931.61L399.642 942.705L383.887 939.806ZM412.392 920.16L427.44 922.929L424.076 899.432L412.392 920.16ZM485.076 954.828C479.558 954.686 474.785 953.573 470.757 951.489C466.791 949.347 463.746 946.388 461.622 942.612C459.498 938.836 458.501 934.429 458.63 929.391L459.672 888.814L475.327 889.216L474.285 929.793C474.187 933.631 475.1 936.626 477.026 938.776C478.953 940.866 481.745 941.958 485.404 942.052C489.063 942.146 491.908 941.199 493.94 939.21C495.973 937.162 497.039 934.218 497.138 930.379L498.179 889.803L513.834 890.205L512.793 930.781C512.663 935.82 511.441 940.17 509.126 943.832C506.872 947.495 503.679 950.294 499.548 952.228C495.418 954.103 490.594 954.97 485.076 954.828ZM543.767 952.174L538.048 901.375L519.267 903.489L517.837 890.79L571.051 884.799L572.48 897.499L553.699 899.613L559.418 950.412L543.767 952.174Z" fill="white"/>
</g>
<defs>
<filter id="filter0_f_2649_420" x="-179.402" y="398.094" width="997.012" height="956.953" filterUnits="userSpaceOnUse" color-interpolation-filters="sRGB">
<feFlood flood-opacity="0" result="BackgroundImageFix"/>
<feBlend mode="normal" in="SourceGraphic" in2="BackgroundImageFix" result="shape"/>
<feGaussianBlur stdDeviation="82" result="effect1_foregroundBlur_2649_420"/>
</filter>
<clipPath id="clip0_2649_420">
<rect width="1000" height="1000" rx="500" fill="white"/>
</clipPath>
<clipPath id="clip1_2649_420">
<rect x="0.378906" width="1000" height="1000" rx="500" fill="white"/>
</clipPath>
</defs>
</svg>
