<svg width="1000" height="1000" viewBox="0 0 1000 1000" fill="none" xmlns="http://www.w3.org/2000/svg">
<g clip-path="url(#clip0_2649_413)">
<mask id="mask0_2649_413" style="mask-type:alpha" maskUnits="userSpaceOnUse" x="0" y="443" width="853" height="557">
<path d="M3.53618 443.899C-8.07745 546.752 12.5154 650.675 62.4734 741.327C112.431 831.979 189.292 904.893 282.449 950.007C375.607 995.122 480.47 1010.21 582.568 993.199C684.667 976.184 778.969 927.903 852.462 855.017L743.776 745.425C692.969 795.811 627.778 829.188 557.197 840.95C486.616 852.712 414.123 842.28 349.723 811.092C285.323 779.904 232.189 729.499 197.653 666.83C163.117 604.162 148.881 532.32 156.909 461.217L3.53618 443.899Z" fill="#F5F5FF"/>
</mask>
<g mask="url(#mask0_2649_413)">
<g filter="url(#filter0_f_2649_413)">
<ellipse cx="264" cy="955" rx="394" ry="371" fill="#F5F5FF"/>
</g>
</g>
<path d="M82.2599 678.928L95.3782 674.573L92.5973 669.02L104.267 664.987L107.088 670.62L117.993 667.071L115.132 661.358L126.842 657.405L129.703 663.119L143.505 658.521L149.914 671.316L136.111 675.914L139.9 683.478L153.702 678.88L160.111 691.675L146.308 696.273L149.17 701.986L137.46 705.939L134.598 700.225L123.693 703.775L126.635 709.649L114.925 713.601L111.983 707.727L98.8649 712.083L92.4567 699.288L105.575 694.932L101.786 687.368L88.6682 691.723L82.2599 678.928ZM113.496 683.415L117.325 691.06L128.19 687.43L124.361 679.786L113.496 683.415ZM111.99 736.275L164.284 699.553L173.284 712.369L152.587 726.902L165 744.579L185.697 730.045L194.697 742.861L142.403 779.584L133.403 766.768L154.468 751.975L142.055 734.299L120.99 749.091L111.99 736.275ZM153.604 793.971L199.935 749.963L231.546 783.242L222.28 792.044L201.454 770.118L192.253 778.858L212.335 800L203.069 808.802L182.987 787.66L173.656 796.523L194.978 818.971L185.712 827.772L153.604 793.971ZM194.014 836.301L231.04 824.559L233.478 786.043L247.738 797.175L245.618 821.096L267.956 812.959L282.286 824.147L245.694 835.771L243.176 874.681L228.917 863.549L231.187 839.289L208.344 847.488L194.014 836.301ZM250.981 880.452L302.076 835.693L317.984 844.494L307.209 911.561L293.112 903.762L295.328 891.205L274.538 879.703L264.998 888.207L250.981 880.452ZM284.252 870.883L297.64 878.29L301.917 854.942L284.252 870.883ZM318.389 916.623L339.937 856.466L355.442 862.02L363.966 907.615L377.472 869.911L392.215 875.191L370.667 935.349L355.077 929.764L346.061 885.81L333.132 921.904L318.389 916.623ZM383.887 939.806L418.109 881.13L435.989 884.42L447.086 951.434L431.242 948.519L429.353 935.909L405.985 931.61L399.642 942.705L383.887 939.806ZM412.392 920.16L427.44 922.929L424.076 899.432L412.392 920.16ZM485.076 954.828C479.558 954.686 474.785 953.573 470.757 951.489C466.791 949.347 463.746 946.388 461.622 942.612C459.498 938.836 458.501 934.429 458.63 929.391L459.672 888.814L475.327 889.216L474.285 929.793C474.187 933.631 475.1 936.626 477.026 938.776C478.953 940.866 481.745 941.958 485.404 942.052C489.063 942.146 491.908 941.199 493.94 939.21C495.973 937.162 497.039 934.218 497.138 930.379L498.179 889.803L513.834 890.205L512.793 930.781C512.663 935.82 511.441 940.17 509.126 943.832C506.872 947.495 503.679 950.294 499.548 952.228C495.418 954.103 490.594 954.97 485.076 954.828ZM543.767 952.174L538.048 901.375L519.267 903.489L517.837 890.79L571.051 884.799L572.48 897.499L553.699 899.613L559.418 950.412L543.767 952.174Z" fill="#834DFB"/>
</g>
<defs>
<filter id="filter0_f_2649_413" x="-294" y="420" width="1116" height="1070" filterUnits="userSpaceOnUse" color-interpolation-filters="sRGB">
<feFlood flood-opacity="0" result="BackgroundImageFix"/>
<feBlend mode="normal" in="SourceGraphic" in2="BackgroundImageFix" result="shape"/>
<feGaussianBlur stdDeviation="82" result="effect1_foregroundBlur_2649_413"/>
</filter>
<clipPath id="clip0_2649_413">
<rect width="1000" height="1000" rx="500" fill="white"/>
</clipPath>
</defs>
</svg>
